<?xml version="1.0" encoding="utf-8"?>
<!-- Generator: Adobe Illustrator 23.0.1, SVG Export Plug-In . SVG Version: 6.00 Build 0)  -->
<svg version="1.1" id="Layer_1" xmlns="http://www.w3.org/2000/svg" xmlns:xlink="http://www.w3.org/1999/xlink" x="0px" y="0px"
	 viewBox="0 0 220 65" style="enable-background:new 0 0 220 65;" xml:space="preserve">
<style type="text/css">
	.st0{fill:#F2253E;}
	.st1{fill:#FFFFFF;}
</style>
<g>
	<path class="st0" d="M205.5,19.2c0.2,3.3-2.5,6.5-6.4,6.5c-3.5,0-6.5-2.8-6.5-6.4c0-3.6,2.9-6.5,6.5-6.5
		C202.9,12.8,205.6,15.9,205.5,19.2z"/>
	<path class="st0" d="M186.9,22.2c-0.8,1.7-2.1,2.7-3.7,3.2c-3.4,1-6.7-0.5-7.9-3.8c-1.4-3.7,0.7-7.9,4.6-8.6
		c2.7-0.5,4.9,0.3,6.6,2.5c0.4,0.5,0.4,0.9-0.1,1.4c-0.5,0.5-0.9,1.1-1.4,1.6c-0.7,0.7-0.9,1.5-0.5,2.4
		C185,21.8,185.7,22.3,186.9,22.2z"/>
	<path class="st0" d="M193.1,7.5c-1.4,1.1-2.6,2.1-4,3.2c1.1,0.9,2.1,1.7,3.1,2.5c0.8,0.7,0.9,1.3,0.2,2.1c-1.5,1.7-3,3.4-4.5,5.1
		c-0.7,0.8-1.2,0.9-1.9,0.4c-0.6-0.4-0.5-1.2,0.1-1.9c1.2-1.4,2.4-2.8,3.7-4.3c-1-0.8-1.9-1.5-2.8-2.3c-0.2-0.1-0.4-0.3-0.5-0.4
		c-0.8-0.7-0.8-1.5,0-2.2c2-1.6,4.1-3.2,6.1-4.8c0.9-0.7,1.7-0.4,2.2,0.6c0.4,0.9,0.9,1.7,1.2,2.6c0.3,0.9,1,1.3,1.9,1.4
		c0.9,0.1,1.8,0.3,2.7,0.5c0.7,0.2,1.1,0.7,0.9,1.4c-0.2,0.7-0.7,1.1-1.4,1c-1.4-0.2-2.8-0.5-4.2-0.8c-0.8-0.1-1.3-0.6-1.6-1.4
		C193.9,9.2,193.5,8.4,193.1,7.5z"/>
	<path class="st0" d="M198.6,7.4c-1.3,0-2.3-1-2.3-2.3c0-1.2,1.1-2.3,2.4-2.2c1.2,0,2.3,1.1,2.3,2.3C201.1,6.4,200,7.4,198.6,7.4z"
		/>
</g>
<g>
	<g>
		<path class="st1" d="M40.5,28c2.1,1.3,3.7,3.3,4.9,5.8c1.2,2.5,1.8,5.4,1.8,8.7c0,3.3-0.7,6.2-1.9,8.7c-1.2,2.5-2.9,4.4-5,5.7
			c-2.1,1.3-4.4,2-7,2c-3.7,0-6.4-1.3-8.3-3.8l0,3.2l-9.4-0.1L16,14.7l9.8,0.1l-0.1,14.5c1.9-2.2,4.5-3.3,7.8-3.2
			C36.1,26,38.4,26.7,40.5,28z M35.6,48c1.1-1.3,1.7-3.2,1.7-5.6c0-2.3-0.5-4.2-1.6-5.5c-1.1-1.3-2.5-2-4.2-2c-1.7,0-3.1,0.6-4.3,2
			c-1.1,1.3-1.7,3.2-1.7,5.5c0,2.4,0.5,4.3,1.6,5.6c1.1,1.4,2.5,2,4.2,2.1C33,50,34.5,49.3,35.6,48z"/>
		<path class="st1" d="M51.2,21.4c-1.1-1.1-1.6-2.6-1.6-4.2c0-1.7,0.6-3.1,1.7-4.2c1.1-1.1,2.6-1.7,4.4-1.7c1.8,0,3.2,0.6,4.3,1.6
			c1.1,1.1,1.6,2.5,1.6,4.1c0,1.8-0.6,3.2-1.7,4.4c-1.1,1.1-2.6,1.7-4.4,1.7C53.7,23.1,52.3,22.6,51.2,21.4z M50.6,26.6l9.8,0.1
			l-0.2,31.8l-9.8-0.1L50.6,26.6z"/>
		<path class="st1" d="M78,47.5l-2.9,3.3l-0.1,7.8l-9.8-0.1L65.6,15l9.8,0.1l-0.2,22.8l10.1-11L97,27L85.2,40.5l12.5,18.3l-11.9-0.1
			L78,47.5z"/>
		<path class="st1" d="M126.8,45.9l-20.4-0.1c0.4,1.6,1.2,2.9,2.4,3.8s2.7,1.3,4.5,1.4c1.3,0,2.5-0.2,3.5-0.6c1-0.4,2-1.1,3-2.1
			l5.1,6.1c-2.7,3.4-6.7,5.1-12,5.1c-3.3,0-6.2-0.7-8.6-2.2c-2.5-1.4-4.4-3.4-5.7-5.9c-1.3-2.5-2-5.4-2-8.5c0-3.1,0.7-5.9,2.1-8.4
			c1.3-2.5,3.2-4.4,5.6-5.8c2.4-1.4,5-2.1,7.9-2.1c2.8,0,5.3,0.7,7.6,2c2.3,1.3,4.1,3.2,5.4,5.7c1.3,2.5,2,5.4,1.9,8.8
			C127,43.2,126.9,44.2,126.8,45.9z M108.3,35.9c-1,1-1.7,2.3-2,4l11.5,0.1c-0.3-1.7-0.9-3-1.9-4c-1-1-2.3-1.5-3.8-1.5
			C110.6,34.5,109.3,34.9,108.3,35.9z"/>
		<path class="st1" d="M130.4,15.5l9.8,0.1l-0.3,43.5l-9.8-0.1L130.4,15.5z"/>
		<path class="st1" d="M151,57.6c-2.4-1.4-4.3-3.4-5.6-5.9s-2-5.4-2-8.5c0-3.1,0.7-5.9,2.1-8.4c1.4-2.5,3.3-4.4,5.7-5.8
			c2.4-1.4,5.1-2,8.2-2s5.8,0.7,8.2,2.1c2.4,1.4,4.3,3.4,5.6,5.9c1.3,2.5,2,5.3,2,8.5c0,3.2-0.7,6-2.1,8.5s-3.3,4.4-5.7,5.8
			c-2.4,1.4-5.2,2.1-8.2,2.1C156.1,59.7,153.4,59,151,57.6z M163.4,48.9c1.1-1.3,1.7-3.2,1.7-5.6c0-2.3-0.5-4.2-1.6-5.5
			c-1.1-1.3-2.5-2-4.2-2s-3.1,0.6-4.3,2c-1.1,1.3-1.7,3.2-1.7,5.5c0,2.4,0.5,4.3,1.6,5.6c1.1,1.4,2.5,2,4.2,2.1
			C160.9,50.9,162.3,50.2,163.4,48.9z"/>
		<path class="st1" d="M207.2,27.8l-11.8,31.7l-10.1-0.1l-11.3-31.9l10.1,0.1l6.6,19.5l7.2-19.4L207.2,27.8z"/>
	</g>
</g>
</svg>
